<?xml version="1.0" encoding="utf-8"?>
<!-- Generator: Adobe Illustrator 25.3.0, SVG Export Plug-In . SVG Version: 6.00 Build 0)  -->
<svg version="1.1" id="Layer_1" xmlns="http://www.w3.org/2000/svg" xmlns:xlink="http://www.w3.org/1999/xlink" x="0px" y="0px"
	 viewBox="0 0 22 26" style="enable-background:new 0 0 22 26;" xml:space="preserve">
<style type="text/css">
	.st0{fill:#F95054;}
</style>
<path class="st0" d="M21.3,7.9c0.2,0,0.3,0,0.4-0.1c0.1-0.1,0.2-0.3,0.2-0.4v-2c0-0.2-0.1-0.3-0.2-0.4c-0.1-0.1-0.2-0.2-0.4-0.2h-1
	V3.2c0-0.8-0.3-1.6-0.9-2.2c-0.6-0.6-1.4-0.9-2.2-0.9H3.1c-0.8,0-1.6,0.3-2.2,0.9C0.3,1.7,0,2.4,0,3.2V22c0,0.8,0.3,1.6,0.9,2.2
	c0.6,0.6,1.4,0.9,2.2,0.9h14.1c0.8,0,1.6-0.3,2.2-0.9s0.9-1.4,0.9-2.2v-1.6h1c0.2,0,0.3,0,0.4-0.1c0.1-0.1,0.2-0.3,0.2-0.4v-2
	c0-0.2-0.1-0.3-0.2-0.4c-0.1-0.1-0.2-0.2-0.4-0.2h-1v-3.1h1c0.2,0,0.3,0,0.4-0.1c0.1-0.1,0.2-0.3,0.2-0.4v-2c0-0.2-0.1-0.3-0.2-0.4
	c-0.1-0.1-0.2-0.2-0.4-0.2h-1V7.9H21.3z M18.8,22c0,0.4-0.2,0.8-0.5,1.1c-0.3,0.3-0.7,0.5-1.1,0.5H3.1c-0.4,0-0.8-0.2-1.1-0.5
	c-0.3-0.3-0.4-0.7-0.4-1.1V3.2c0-0.4,0.1-0.8,0.4-1.1c0.3-0.3,0.7-0.5,1.1-0.5h14.1c0.4,0,0.8,0.2,1.1,0.5c0.3,0.3,0.5,0.7,0.5,1.1
	V22z M10.2,13.4c1.1,0,2-0.4,2.7-1.1c0.8-0.8,1.2-1.7,1.2-2.8c0-1.1-0.4-2-1.2-2.7c-0.7-0.8-1.7-1.2-2.7-1.2c-1.1,0-2,0.4-2.8,1.2
	C6.6,7.5,6.2,8.4,6.2,9.5c0,1.1,0.4,2,1.1,2.8C8.2,13,9.1,13.4,10.2,13.4z M10.2,7.2c0.7,0,1.2,0.2,1.7,0.7c0.5,0.5,0.7,1,0.7,1.7
	c0,0.7-0.2,1.2-0.7,1.7c-0.5,0.5-1,0.7-1.7,0.7c-0.7,0-1.2-0.2-1.7-0.7c-0.5-0.5-0.7-1-0.7-1.7c0-0.7,0.2-1.2,0.7-1.7
	C9,7.4,9.5,7.2,10.2,7.2z M12.5,14.2c-0.3,0-0.7,0.1-1.1,0.2c-0.4,0.1-0.8,0.1-1.2,0.1c-0.4,0-0.8,0-1.2-0.1
	c-0.4-0.1-0.7-0.2-1.1-0.2c-0.5,0-1,0.1-1.5,0.3c-0.5,0.2-0.8,0.6-1.1,1c-0.4,0.6-0.5,1.2-0.5,1.9v1.9c0,0.1,0,0.2,0.1,0.3
	c0.1,0.1,0.2,0.1,0.3,0.1h0.8c0.1,0,0.2,0,0.2-0.1c0.1-0.1,0.1-0.2,0.1-0.3v-1.9c0-0.4,0.1-0.7,0.3-1c0.3-0.4,0.7-0.6,1.3-0.6
	c0.2,0,0.4,0,0.7,0.1c0.6,0.1,1.1,0.2,1.6,0.2c0.5,0,1-0.1,1.6-0.2c0.3-0.1,0.6-0.1,0.7-0.1c0.6,0,1,0.2,1.3,0.6
	c0.2,0.3,0.3,0.6,0.3,1v1.9c0,0.1,0,0.2,0.1,0.3c0.1,0.1,0.2,0.1,0.3,0.1h0.8c0.1,0,0.2,0,0.3-0.1c0.1-0.1,0.1-0.2,0.1-0.3v-1.9
	c0-0.7-0.2-1.3-0.5-1.9c-0.3-0.4-0.7-0.7-1.2-1C13.5,14.3,13,14.2,12.5,14.2z"/>
</svg>
