<?xml version="1.0" encoding="utf-8"?>
<!-- Generator: Adobe Illustrator 25.3.0, SVG Export Plug-In . SVG Version: 6.00 Build 0)  -->
<svg version="1.1" id="Layer_1" xmlns="http://www.w3.org/2000/svg" xmlns:xlink="http://www.w3.org/1999/xlink" x="0px" y="0px"
	 viewBox="0 0 31.1 22.5" style="enable-background:new 0 0 31.1 22.5;" xml:space="preserve">
<style type="text/css">
	.st0{fill:#F95054;}
</style>
<path class="st0" d="M29.7,5.3l-12.9-5c-0.9-0.3-1.7-0.3-2.6,0l-12.9,5c-0.4,0.2-0.8,0.4-1,0.9C0.1,6.5,0,7,0,7.5s0.1,1,0.3,1.4
	c0.3,0.4,0.6,0.7,1,0.8l1.5,0.6c-0.2,0.4-0.3,0.7-0.4,1.1c-0.3,0.2-0.5,0.4-0.6,0.7s-0.2,0.6-0.2,1s0.1,0.7,0.2,1s0.4,0.5,0.6,0.7
	l-0.9,6.6c0,0.3,0,0.5,0.1,0.8c0.1,0.2,0.3,0.4,0.5,0.4h1.9c0.2,0,0.3-0.1,0.4-0.4c0.1-0.2,0.2-0.5,0.1-0.8l-0.9-6.6
	c0.3-0.2,0.5-0.4,0.6-0.7c0.2-0.3,0.2-0.6,0.2-1c0-0.6-0.2-1.1-0.6-1.5c0.1-0.3,0.2-0.5,0.3-0.8l2.6,1l-0.7,6.9
	c0,0.7,0.4,1.3,1.3,1.9c0.8,0.6,2,1.1,3.4,1.4c1.4,0.3,3,0.5,4.7,0.5s3.2-0.2,4.7-0.5c1.4-0.4,2.6-0.8,3.4-1.4
	c0.8-0.6,1.3-1.2,1.3-1.9l-0.7-6.9l5.6-2.2c0.4-0.2,0.7-0.4,1-0.8c0.3-0.4,0.4-0.9,0.4-1.4s-0.1-1-0.4-1.3
	C30.5,5.7,30.1,5.4,29.7,5.3z M23.3,18.6c-0.3,0.4-1.1,0.8-2.3,1.2c-1.6,0.5-3.4,0.8-5.4,0.8s-3.8-0.3-5.4-0.8
	c-1.2-0.4-2-0.8-2.3-1.2l0.6-6.2l5.8,2.3c0.9,0.4,1.7,0.4,2.6,0l5.8-2.3L23.3,18.6z M29.2,8l-12.9,5c-0.6,0.2-1.1,0.2-1.7,0L6.2,9.6
	l9.5-2.1c0.2,0,0.4-0.2,0.5-0.4c0.1-0.2,0.2-0.5,0.1-0.7c0-0.3-0.1-0.5-0.3-0.6c-0.2-0.2-0.4-0.2-0.6-0.2L5.5,7.9
	C4.9,8,4.4,8.3,3.9,8.7L1.8,8C1.7,7.9,1.6,7.7,1.6,7.5S1.7,7.1,1.8,7l12.9-5c0.6-0.2,1.1-0.2,1.7,0l12.9,5c0.2,0.1,0.3,0.2,0.3,0.5
	S29.4,7.9,29.2,8z"/>
</svg>
