<?xml version="1.0" encoding="utf-8"?>
<!-- Generator: Adobe Illustrator 25.3.0, SVG Export Plug-In . SVG Version: 6.00 Build 0)  -->
<svg version="1.1" id="Layer_1" xmlns="http://www.w3.org/2000/svg" xmlns:xlink="http://www.w3.org/1999/xlink" x="0px" y="0px"
	 viewBox="0 0 29 22.5" style="enable-background:new 0 0 29 22.5;" xml:space="preserve">
<style type="text/css">
	.st0{fill:#44566C;}
</style>
<path class="st0" d="M27.9,5.2l-12-5c-0.9-0.3-1.6-0.3-2.5,0l-12,5c-0.5,0.1-0.8,0.4-1,0.9C0.1,6.4,0,6.9,0,7.4s0.1,1,0.3,1.4
	s0.5,0.7,0.9,0.8l1.4,0.6c-0.2,0.4-0.3,0.7-0.4,1.1C2,11.5,1.8,11.7,1.6,12s-0.2,0.6-0.2,1s0.1,0.7,0.2,1s0.3,0.5,0.6,0.7l-0.9,6.6
	c0,0.3,0,0.5,0.1,0.8c0.2,0.2,0.3,0.4,0.5,0.4h1.8c0.2,0,0.3-0.1,0.4-0.4c0.2-0.2,0.2-0.5,0.2-0.8l-0.9-6.6C3.7,14.5,3.9,14.3,4,14
	c0.2-0.3,0.2-0.6,0.2-1c0-0.6-0.2-1.1-0.6-1.5C3.7,11.2,3.8,11,4,10.7l2.5,1l-0.7,6.9c0.1,0.7,0.5,1.3,1.2,1.9s1.9,1.1,3.2,1.4
	c1.3,0.3,2.8,0.5,4.3,0.5s3-0.2,4.3-0.5c1.3-0.4,2.4-0.8,3.2-1.4s1.2-1.2,1.2-1.9l-0.7-6.9l5.2-2.2c0.4-0.2,0.7-0.4,0.9-0.8
	C28.9,8.3,29,7.8,29,7.3s-0.2-1-0.4-1.3C28.6,5.6,28.3,5.3,27.9,5.2z M21.8,18.5c-0.3,0.4-1,0.8-2.2,1.2c-1.5,0.5-3.1,0.8-5,0.8
	s-3.6-0.3-5-0.8c-1.2-0.4-1.9-0.8-2.2-1.2L8,12.3l5.4,2.3c0.9,0.4,1.6,0.4,2.5,0l5.4-2.3L21.8,18.5z M27.4,7.9l-12,5
	c-0.5,0.2-1,0.2-1.6,0L5.7,9.5l8.9-2.1c0.2,0,0.3-0.2,0.5-0.4c0.2-0.2,0.2-0.5,0.2-0.7c0-0.3-0.2-0.5-0.3-0.6
	c-0.2-0.2-0.4-0.2-0.5-0.2L5.1,7.7c-0.5,0.2-1,0.5-1.5,0.9L1.7,7.9C1.6,7.8,1.5,7.6,1.5,7.4S1.6,7,1.7,6.9l12-5c0.5-0.2,1-0.2,1.6,0
	l12,5c0.2,0.1,0.3,0.2,0.3,0.5S27.6,7.8,27.4,7.9z"/>
</svg>
