<?xml version="1.0" encoding="utf-8"?>
<!-- Generator: Adobe Illustrator 25.3.0, SVG Export Plug-In . SVG Version: 6.00 Build 0)  -->
<svg version="1.1" id="Layer_1" xmlns="http://www.w3.org/2000/svg" xmlns:xlink="http://www.w3.org/1999/xlink" x="0px" y="0px"
	 viewBox="0 0 30 27" style="enable-background:new 0 0 30 27;" xml:space="preserve">
<style type="text/css">
	.st0{fill:#44566C;}
</style>
<path class="st0" d="M27.2,6.2h-6.6V2c0-0.4-0.1-0.7-0.4-1c-0.3-0.3-0.6-0.4-1-0.4h-8.4c-0.4,0-0.7,0.1-1,0.4C9.5,1.3,9.4,1.6,9.4,2
	v4.2H2.8c-0.8,0-1.4,0.3-2,0.8C0.3,7.6,0,8.3,0,9.1v15c0,0.8,0.3,1.4,0.8,2c0.5,0.5,1.2,0.8,2,0.8h24.4c0.8,0,1.4-0.3,2-0.8
	c0.5-0.5,0.8-1.2,0.8-2v-15c0-0.8-0.3-1.4-0.8-2C28.6,6.5,28,6.2,27.2,6.2z M11.2,2.5h7.5v3.8h-7.5V2.5z M28.1,24.1
	c0,0.3-0.1,0.5-0.3,0.7c-0.2,0.2-0.4,0.2-0.6,0.2H2.8c-0.3,0-0.5-0.1-0.7-0.2c-0.2-0.2-0.2-0.4-0.2-0.7v-8.4h9.4V18
	c0,0.4,0.1,0.7,0.4,1c0.3,0.3,0.6,0.4,1,0.4h4.7c0.4,0,0.7-0.1,1-0.4c0.3-0.3,0.4-0.6,0.4-1v-2.3h9.4V24.1z M13.1,17.5v-1.9h3.8v1.9
	H13.1z M28.1,13.8H1.9V9.1c0-0.3,0.1-0.5,0.2-0.6c0.2-0.2,0.4-0.3,0.7-0.3h24.4c0.3,0,0.5,0.1,0.6,0.3c0.2,0.2,0.3,0.4,0.3,0.6V13.8
	z"/>
</svg>
