<?xml version="1.0" encoding="utf-8"?>
<!-- Generator: Adobe Illustrator 25.3.0, SVG Export Plug-In . SVG Version: 6.00 Build 0)  -->
<svg version="1.1" id="Capa_1" xmlns="http://www.w3.org/2000/svg" xmlns:xlink="http://www.w3.org/1999/xlink" x="0px" y="0px"
	 viewBox="0 0 487.5 487.5" style="enable-background:new 0 0 487.5 487.5;" xml:space="preserve">
<style type="text/css">
	.st0{fill:#FFFFFF;}
</style>
<g>
	<path class="st0" d="M61,426.5c0-1.4,0-2.6,0-3.8c0-28.5,0-56.9,0-85.4c0-3.2-0.3-6.6-1.1-9.7c-3.8-15-18-24.6-33.2-22.7
		C11.5,306.7,0,319.7,0,335.1c0,40.9,0,81.8,0,122.7c0,1.6,0.1,3.2,0.4,4.7c3.2,15.7,15.4,25.1,32.2,25.1c101.5,0,203.1,0,304.6,0
		c39.4,0,78.8,0,118.3,0c17.8,0,31.8-12.5,31.8-29.2c0.2-41.7,0.2-83.4,0-125c-0.1-17.7-18.4-31.8-35.7-28.2
		c-15.4,3.2-25.2,15.2-25.2,31.2c-0.1,28.7,0,57.4,0,86.1c0,1.3,0,2.6,0,4.1C304.5,426.5,182.9,426.5,61,426.5z M213.3,260.6
		c-0.4,0.1-0.7,0.3-1.1,0.4c-0.3-0.5-0.5-1.1-0.9-1.4c-22.5-22.5-45-45-67.6-67.6c-5.6-5.6-12.3-8.8-20.1-9.2
		c-13.1-0.6-24.5,6.5-29.7,18.4c-5,11.4-2.4,24.7,6.9,34c40.2,40.2,80.3,80.4,120.5,120.5c13.4,13.4,31.8,13.3,45.1,0
		c17-17,34-34,51-51c23.1-23.1,46.2-46.2,69.3-69.2c7.8-7.8,11-17.1,8.9-27.8c-2.3-12-9.6-20.1-21.3-23.5c-11.6-3.4-21.9-0.5-30.5,8
		c-18,17.9-35.9,35.9-53.9,53.9c-5,5-9.9,10.1-14.8,15.1c-0.3-0.1-0.5-0.3-0.8-0.4c0-1.4,0-2.8,0-4.3c0-14.5,0-28.9,0-43.4
		c0-49.1,0-98.3,0-147.4c0-12.9,0.5-25.8-0.4-38.6c-1.1-16.6-16.5-28.7-32.6-27c-17,1.7-28,14.5-28,31.7c0,18.2,0,36.4,0,54.5
		c0,51.8,0,103.7,0.1,155.5C213.3,248.1,213.3,254.3,213.3,260.6z"/>
	<path class="st0" d="M61,426.5c122,0,243.5,0,365.5,0c0-1.5,0-2.8,0-4.1c0-28.7,0-57.4,0-86.1c0-15.9,9.8-27.9,25.2-31.2
		c17.3-3.6,35.6,10.6,35.7,28.2c0.2,41.7,0.2,83.4,0,125c-0.1,16.7-14,29.2-31.8,29.2c-39.4,0-78.8,0-118.3,0
		c-101.5,0-203.1,0-304.6,0c-16.9,0-29.1-9.5-32.2-25.1C0.1,461,0,459.4,0,457.8c0-40.9,0-81.8,0-122.7c0-15.4,11.5-28.4,26.6-30.2
		c15.3-1.9,29.4,7.7,33.2,22.7c0.8,3.1,1.1,6.5,1.1,9.7c0.1,28.5,0,56.9,0,85.4C61,423.9,61,425.1,61,426.5z"/>
	<path class="st0" d="M213.3,260.6c0-6.3,0-12.5,0-18.8c0-51.8,0-103.7-0.1-155.5c0-18.2,0-36.4,0-54.5c0-17.2,11-30,28-31.7
		c16.1-1.6,31.5,10.4,32.6,27c0.8,12.8,0.4,25.7,0.4,38.6c0,49.1,0,98.3,0,147.4c0,14.5,0,28.9,0,43.4c0,1.4,0,2.8,0,4.3
		c0.3,0.1,0.5,0.3,0.8,0.4c4.9-5,9.8-10.1,14.8-15.1c17.9-18,35.9-36,53.9-53.9c8.6-8.5,18.9-11.4,30.5-8
		c11.7,3.4,19.1,11.6,21.3,23.5c2,10.7-1.1,20.1-8.9,27.8c-23.1,23.1-46.2,46.1-69.3,69.2c-17,17-34,34-51,51
		c-13.3,13.4-31.7,13.4-45.1,0c-40.2-40.1-80.3-80.3-120.5-120.5c-9.3-9.3-11.9-22.6-6.9-34c5.2-11.8,16.6-18.9,29.7-18.4
		c7.9,0.4,14.6,3.6,20.1,9.2c22.5,22.5,45,45,67.6,67.6c0.4,0.4,0.6,1,0.9,1.4C212.5,260.9,212.9,260.8,213.3,260.6z"/>
</g>
</svg>
