<?xml version="1.0" encoding="utf-8"?>
<!-- Generator: Adobe Illustrator 25.3.0, SVG Export Plug-In . SVG Version: 6.00 Build 0)  -->
<svg version="1.1" id="Layer_1" xmlns="http://www.w3.org/2000/svg" xmlns:xlink="http://www.w3.org/1999/xlink" x="0px" y="0px"
	 viewBox="0 0 26 26.1" style="enable-background:new 0 0 26 26.1;" xml:space="preserve">
<style type="text/css">
	.st0{fill:#44566C;}
</style>
<g>
	<path class="st0" d="M6.1,12.4c0-0.1,0-0.2,0-0.4c0-3.2,0-6.3,0-9.5C6.1,0.9,7.1,0,8.6,0c3.8,0,7.5,0,11.3,0c0.4,0,0.7,0.1,1,0.4
		C22.4,2,24,3.6,25.6,5.1C25.9,5.4,26,5.7,26,6.1c0,5.8,0,11.7,0,17.5c0,1.5-0.9,2.5-2.5,2.5c-5.5,0-11,0-16.6,0c-3.1,0-5.8-2-6.7-5
		c-1.2-4,1.5-8.2,5.7-8.7C6,12.4,6,12.4,6.1,12.4z M11.2,24.6c0.2,0,0.3,0,0.4,0c4,0,8,0,11.9,0c0.7,0,1-0.3,1-1
		c0-5.5,0-11.1,0-16.6c0-0.1,0-0.2,0-0.3c-0.1,0-0.2,0-0.4,0c-1.3,0-2.5,0-3.8,0c-0.7,0-1-0.3-1-1c0-1.2,0-2.5,0-3.7
		c0-0.1,0-0.2,0-0.4c-0.1,0-0.2,0-0.3,0c-3.5,0-7,0-10.4,0c-0.7,0-0.9,0.3-0.9,0.9c0,3.2,0,6.4,0,9.6c0,0.1,0,0.2,0,0.3
		C8.9,12.5,10,13,11,13.7c0.1,0.1,0.3,0.2,0.5,0.2c2.9,0,5.7,0,8.6,0c0.5,0,1,0,1.5,0c0.5,0,0.9,0.3,0.9,0.8c0,0.5-0.4,0.8-0.9,0.8
		c-0.1,0-0.2,0-0.3,0c-2.8,0-5.5,0-8.3,0c-0.1,0-0.2,0-0.4,0c0.6,1,1,2,1.1,3.1c0.2,0,0.3,0,0.4,0c2.4,0,4.9,0,7.3,0
		c0.1,0,0.2,0,0.3,0c0.4,0,0.7,0.4,0.7,0.7c0,0.4-0.3,0.7-0.7,0.8c-0.1,0-0.2,0-0.3,0c-2.5,0-4.9,0-7.4,0c-0.1,0-0.2,0-0.4,0
		C13.5,21.8,12.7,23.3,11.2,24.6z M6.9,13.9c-2.9,0-5.4,2.4-5.4,5.3c0,2.9,2.4,5.3,5.3,5.4c2.9,0,5.4-2.4,5.4-5.3
		C12.2,16.3,9.8,13.9,6.9,13.9z M20.9,5.1c0.8,0,1.6,0,2.3,0c-0.8-0.8-1.5-1.6-2.3-2.3C20.9,3.5,20.9,4.3,20.9,5.1z"/>
	<path class="st0" d="M16,10.8c-1.8,0-3.6,0-5.4,0c-0.2,0-0.4,0-0.5-0.1c-0.3-0.1-0.5-0.5-0.4-0.8c0.1-0.3,0.3-0.6,0.7-0.7
		c0.1,0,0.2,0,0.3,0c3.6,0,7.2,0,10.8,0c0.1,0,0.3,0,0.4,0c0.4,0.1,0.6,0.4,0.6,0.8c0,0.4-0.3,0.6-0.7,0.7c-0.1,0-0.2,0-0.3,0
		C19.6,10.8,17.8,10.8,16,10.8z"/>
	<path class="st0" d="M7.6,18.4c0.4,0,0.8,0,1.2,0c0.5,0,0.8,0.3,0.8,0.8c0,0.5-0.3,0.8-0.8,0.8c-0.6,0-1.3,0-1.9,0
		c-0.5,0-0.8-0.3-0.8-0.8c0-1,0-2,0-3c0-0.5,0.3-0.8,0.7-0.8c0.4,0,0.8,0.3,0.8,0.8C7.6,16.9,7.6,17.7,7.6,18.4z"/>
</g>
</svg>
