<?xml version="1.0" encoding="utf-8"?>
<!-- Generator: Adobe Illustrator 25.3.0, SVG Export Plug-In . SVG Version: 6.00 Build 0)  -->
<svg version="1.1" id="Layer_1" xmlns="http://www.w3.org/2000/svg" xmlns:xlink="http://www.w3.org/1999/xlink" x="0px" y="0px"
	 viewBox="0 0 26 26.1" style="enable-background:new 0 0 26 26.1;" xml:space="preserve">
<style type="text/css">
	.st0{fill:#44566C;}
</style>
<g>
	<path class="st0" d="M19.5,8.2c-0.2-0.8-0.7-1.5-1.5-1.8c0,0,0-0.1,0-0.1c-0.1-0.8-0.6-1.4-1.4-1.6c-0.1,0-0.1-0.1-0.2-0.1
		c-0.7-1.1-2.1-1.5-3.3-0.8c0,0-0.1,0-0.1,0c-1.2-0.6-2.5-0.3-3.3,0.9c0,0-0.1,0.1-0.1,0.1C8.7,5,8.1,5.5,8,6.4c0,0.1,0,0.1-0.1,0.1
		c-0.9,0.4-1.4,1.1-1.4,2c-0.1,0.7,0.1,1.4,0.6,1.9c-0.5,1-0.4,1.8,0.3,2.7c0,0,0,0.1,0,0.2c-0.2,1.1,0.4,2.2,1.5,2.5
		c0.1,0,0.2,0.1,0.2,0.1c0.6,0.8,1.4,1.2,2.3,1.2c0.5,0,1-0.1,1.5-0.4c0.1,0,0.1,0,0.1,0c1.3,0.8,2.9,0.5,3.8-0.7
		c0.1-0.1,0.1-0.1,0.2-0.2c1.1-0.4,1.7-1.4,1.5-2.5c0-0.1,0-0.1,0-0.2c0.7-0.7,0.9-1.7,0.4-2.6l0-0.1C19.4,9.8,19.6,9,19.5,8.2z
		 M17.2,13c0.1,0.1,0.1,0.2,0.1,0.3c0.1,0.3,0.2,0.6,0.1,0.9c-0.1,0.3-0.3,0.5-0.6,0.5c-0.2,0.1-0.5,0.1-0.6,0
		c-0.2-0.1-0.3-0.3-0.3-0.6l0-0.4l-1-0.1l0,0.2c-0.2,0.7,0.1,1.4,0.8,1.9c-0.3,0.3-0.9,0.4-1.4,0.3c-0.1,0-0.1,0-0.2-0.1
		c-0.4-0.1-0.4-0.1-0.4-0.6l0-2.2c0-2.7,0-5.4,0-8.1c0-0.2,0-0.3,0.2-0.3c0.1-0.1,0.3-0.1,0.4-0.1c0.5,0,1,0.3,1.2,0.8
		c0.1,0.2,0.2,0.5,0.6,0.4c0.4,0,0.6,0.2,0.6,0.5c-0.7,0.2-1.2,0.6-1.5,1.2l-0.1,0.2l1,0.6L16.3,8l0-0.1c0.3-0.4,0.7-0.6,1.1-0.5
		c0.5,0.1,0.8,0.5,0.9,1c0.1,0.4,0,0.8-0.3,1.1c0,0-0.1,0-0.1,0c-1-0.3-2.1,0.2-2.5,1.3l-0.1,0.2l0.8,0.4l0.2,0.1l0.1-0.1
		c0.4-0.5,0.6-0.9,1.2-0.7c0.3,0.1,0.4,0.3,0.5,0.7c0.1,0.5-0.2,0.9-0.9,1.2L17,12.7L17.2,13z M11.3,13.8l0-0.2l-1.1,0.1l0,0.4
		c0,0.2-0.1,0.4-0.2,0.5c-0.1,0.1-0.4,0.1-0.6,0.1c-0.3-0.1-0.5-0.3-0.6-0.5s-0.1-0.6,0-0.8c0-0.1,0.1-0.2,0.1-0.3L9,12.7l-0.3-0.2
		c-0.1-0.1-0.2-0.1-0.3-0.2c-0.5-0.3-0.6-0.9-0.3-1.3c0.1-0.2,0.3-0.3,0.5-0.4c0.2,0,0.4,0,0.6,0.2c0.1,0.1,0.2,0.2,0.3,0.4
		c0.1,0.1,0.1,0.1,0.2,0.2l0.1,0.1l0.9-0.4l0-0.2c-0.1-0.5-0.5-0.9-1-1.2c-0.5-0.3-1-0.3-1.5-0.2C8,9.7,8,9.7,7.9,9.6
		C7.6,9.2,7.5,8.7,7.7,8.3c0.2-0.4,0.5-0.7,1-0.8c0.3-0.1,0.5,0,0.8,0.2c0.1,0.1,0.1,0.1,0.2,0.2c0,0,0.1,0.1,0.1,0.2l0.1,0.1
		l0.9-0.5l-0.1-0.2C10.5,7,10.1,6.6,9.2,6.3c0-0.1,0.1-0.2,0.2-0.3c0.1-0.1,0.3-0.2,0.4-0.1c0.5,0.1,0.6-0.2,0.7-0.5
		c0.1-0.3,0.4-0.6,0.7-0.7c0.3-0.1,0.7-0.1,1,0.1c0.1,0,0.1,0.1,0.1,0.1l0,3.4c0,2.4,0,4.8,0,7.2c0,0-0.1,0.1-0.1,0.2
		c-0.5,0.4-1.3,0.3-1.8-0.1C11.1,15.2,11.3,14.6,11.3,13.8z"/>
	<path class="st0" d="M22.2,14.1c0.1-0.2,0.2-0.4,0.3-0.6l0.1-0.2l-1.1-0.4l-0.1,0.2c0,0,0,0.1,0,0.1c-0.7,1.7-1.8,3.1-3.4,4.2
		c-0.3,0.2-0.6,0.5-0.8,0.8c-0.1,0.1-0.3,0.3-0.4,0.4c-0.1,0.1-0.2,0.1-0.2,0.1c-2.4,0-4.7,0-7.1,0c0,0-0.1,0-0.2-0.1
		C9,18.2,8.5,17.8,8,17.4c-1.7-1.2-2.9-2.9-3.5-4.9L4.3,12l-1.1,0.3l0.1,0.2c0,0.1,0.1,0.2,0.1,0.4c0.1,0.2,0.1,0.5,0.2,0.7
		c0.7,2,2.1,3.7,3.9,5c0.8,0.5,1.3,1.3,1.4,2.2c0.1,0.5,0.1,1,0.1,1.5c0,0.2,0,0.3,0,0.5c0,0.6,0.2,1,0.6,1.3
		c0.2,0.1,0.3,0.2,0.5,0.3c0.1,0,0.1,0,0.2,0.1c0,0,0,0,0,0c0.1,0.9,0.7,1.4,1.5,1.5c0.4,0,0.9,0,1.3,0c0.4,0,0.9,0,1.3,0
		c0.8,0,1.4-0.6,1.5-1.4c0-0.1,0-0.1,0-0.1c0,0,0,0,0,0c0,0,0,0,0.1,0c0.8-0.2,1.2-0.8,1.2-1.6c0-0.3,0-0.6,0-0.9v-0.6
		c0-1.3,0.5-2.2,1.5-2.9c1.3-0.9,2.3-1.9,3-3.1C21.8,14.9,22,14.5,22.2,14.1z M12.7,23.3v1.1h1.9c0,0.1,0,0.1-0.1,0.2
		c-0.1,0.1-0.2,0.1-0.3,0.1c-0.3,0-0.6,0-0.9,0l-0.3,0l-0.3,0c-0.3,0-0.6,0-0.9,0c-0.2,0-0.4-0.1-0.4-0.3h0.9v-1.2l-1.3,0
		c-0.1,0-0.3,0-0.5,0c-0.1,0-0.2-0.1-0.3-0.2c0,0-0.1-0.1-0.1-0.1h5.7c0,0.1,0,0.1-0.1,0.2c-0.1,0.1-0.2,0.1-0.3,0.1
		c-0.5,0-1,0-1.5,0L12.7,23.3z M15.9,21.5v0.3h-5.8v-0.3H15.9z M16.1,20L16,20.3h-6L9.9,20H16.1z"/>
	<path class="st0" d="M3.1,11.7l0,0.2l1.1-0.2l0-0.2C3.9,8.6,4.7,6.1,6.5,4.1c1.9-2,4.4-3,7.3-2.8l0.2,0l0.1-1.1l-0.2,0
		c-3.1-0.3-6.1,0.9-8.3,3.2C3.5,5.7,2.6,8.8,3.1,11.7z"/>
	<path class="st0" d="M20.5,5.4c1.3,2.1,1.7,4.5,1.1,7.1l0,0.2l1.1,0.3l0.1-0.2c0.8-2.7,0.3-5.6-1.2-8c-1.6-2.4-4-4-6.7-4.4l-0.2,0
		l-0.1,0.3c0,0.1,0,0.2,0,0.2c0,0.1,0,0.2,0,0.3l0,0.3l0.2,0C17.1,1.9,19.1,3.3,20.5,5.4z"/>
	<polygon class="st0" points="3.2,6.1 1.1,5.3 0.7,6.4 2.8,7.2 	"/>
	<polygon class="st0" points="20.8,17.6 22.5,19 23.3,18.2 21.5,16.7 	"/>
	<polygon class="st0" points="5.2,3 3.5,1.6 2.7,2.4 4.5,3.9 	"/>
	<polygon class="st0" points="23.2,2.4 22.5,1.6 20.8,3 21.5,3.9 	"/>
	<polygon class="st0" points="2.8,13.4 0.7,14.2 1.1,15.3 3.2,14.5 	"/>
	<polygon class="st0" points="22.8,14.5 24.9,15.2 25.3,14.2 23.2,13.4 	"/>
	<rect x="2.8" y="17.3" transform="matrix(0.7677 -0.6408 0.6408 0.7677 -10.5163 6.7017)" class="st0" width="2.3" height="1.1"/>
	<polygon class="st0" points="23.2,7.2 25.3,6.4 24.9,5.3 22.8,6.1 	"/>
	<rect x="0.1" y="9.7" class="st0" width="2.3" height="1.1"/>
	<path class="st0" d="M23.6,9.7v1.1h0.6l1.3,0c0,0,0.1,0,0.2,0l0.2,0V9.7H23.6z"/>
	<rect x="20.4" y="9" class="st0" width="1.1" height="1.1"/>
	<rect x="20.4" y="10.5" class="st0" width="1.1" height="1.1"/>
</g>
</svg>
