<?xml version="1.0" encoding="utf-8"?>
<!-- Generator: Adobe Illustrator 25.3.0, SVG Export Plug-In . SVG Version: 6.00 Build 0)  -->
<svg version="1.1" id="Layer_1" xmlns="http://www.w3.org/2000/svg" xmlns:xlink="http://www.w3.org/1999/xlink" x="0px" y="0px"
	 viewBox="0 0 26 26.1" style="enable-background:new 0 0 26 26.1;" xml:space="preserve">
<style type="text/css">
	.st0{fill:#44566C;}
</style>
<g>
	<path class="st0" d="M4.9,11.8c-0.3-1-0.2-2,0.4-2.9c0-0.1,0-0.2,0-0.3C5.2,7.9,5.5,7.3,6.1,6.9c0.1-0.1,0.2-0.2,0.2-0.4
		c0.2-1.2,1.3-2,2.5-1.8c0.1,0,0.3,0,0.4-0.1c1-1,2.4-1.3,3.7-0.6c0.1,0,0.2,0,0.3,0c0.8-0.6,1.8-0.4,2.5,0.3
		c0.1,0.1,0.2,0.2,0.3,0.2c1.8,0.1,3,1.1,3.5,2.8c0,0.1,0.1,0.2,0.2,0.2c0.9,0.3,1.4,1.2,1.2,2.1c0,0.1,0,0.2,0,0.3
		c0.3,0.6,0.4,1.2,0.3,1.8c0.1,0,0.1,0,0.2,0.1c0.5,0.1,0.7,0.3,0.8,0.8c0,0.2,0.1,0.3,0.3,0.3c0.2,0,0.3,0,0.5,0
		c0.6,0,0.9,0.2,1,0.8c0.4,2.2,0.9,4.4,1.3,6.6c0.2,1,0.4,2,0.6,3c0.2,1-0.4,1.7-1.4,1.7c-2.9,0-5.7,0-8.6,0c-0.2,0-0.4,0-0.6,0.2
		c-0.1,0.2-0.3,0.3-0.5,0.3c-1.2,0.4-2.3,0.4-3.5,0c-0.2-0.1-0.4-0.2-0.6-0.4c-0.1-0.1-0.3-0.2-0.5-0.2c-2.9,0-5.7,0-8.6,0
		C1.4,25,1.2,25,1,25c-0.7-0.2-1-0.8-0.9-1.5c0.4-1.9,0.7-3.8,1.1-5.6c0.3-1.3,0.5-2.7,0.8-4C2.1,13.2,2.4,13,3,13
		c0.1,0,0.1,0,0.2,0c0.5,0,0.5,0,0.6-0.5c0.1-0.4,0.3-0.6,0.7-0.6C4.6,11.8,4.7,11.8,4.9,11.8z M13.4,22.2c3.2-1,6.3-1,9.5,0
		c0-0.1,0-0.1,0-0.2c-0.3-1.8-0.6-3.7-0.9-5.5c-0.2-1.2-0.4-2.3-0.6-3.5c0-0.1,0-0.3-0.2-0.3c-0.2,0-0.3,0-0.4,0.2
		c-0.1,0.1-0.1,0.2-0.2,0.3c-0.2,0.8-0.6,1.4-1.2,1.9c-0.1,0.1-0.2,0.2-0.1,0.3c0.1,0.2,0.2,0.4,0.2,0.6c0.2,0.6,0,1.3-0.5,1.6
		c-0.6,0.4-1.2,0.2-1.8-0.3c-0.3-0.2-0.6-0.4-0.9-0.6c-0.3-0.1-0.5-0.2-0.8-0.3c-0.4-0.2-0.9-0.4-1-0.9c-0.2-0.5-0.6-0.6-1-0.6
		c-0.1,0-0.2,0-0.3,0.1c-1.4,1-3.1,0.8-4.1-0.7c0-0.1-0.2-0.1-0.3-0.1c-1.5,0.2-2.6-0.3-3.5-1.4c-0.2-0.2-0.4-0.1-0.6-0.1
		c-0.2,0-0.2,0.1-0.2,0.3c-0.5,2.9-1,5.8-1.4,8.6c0,0.2-0.1,0.4-0.1,0.6c3.2-1,6.3-1,9.5,0c0-0.2,0-0.3,0-0.4c0-1.6,0-3.2,0-4.8
		c0-0.1,0-0.2,0-0.3c0-0.2,0.2-0.4,0.4-0.4c0.2,0,0.4,0.1,0.4,0.4c0,0.1,0,0.2,0,0.3c0,1.6,0,3.2,0,4.8C13.4,21.9,13.4,22,13.4,22.2
		z M20.3,10.7c-0.1,0.1-0.2,0.1-0.3,0.2c-0.2,0.1-0.4,0-0.6-0.2c-0.1-0.2-0.1-0.4,0.1-0.6c0.1,0,0.1-0.1,0.2-0.1
		c0.5-0.3,0.5-1,0.1-1.4c-0.3-0.3-0.7-0.3-1.2-0.1c-0.3,0.1-0.5,0.1-0.6-0.1c-0.1-0.2-0.1-0.5,0.2-0.6c0.2-0.1,0.3-0.2,0.5-0.3
		c-0.2-1.2-1.5-2.3-2.5-2.1c-0.1,0.4-0.3,0.6-0.6,0.4c-0.2-0.1-0.2-0.3-0.3-0.5c-0.1-0.5-0.4-0.8-0.9-0.8c-0.5,0-0.8,0.3-0.9,0.8
		c0,0.1,0,0.2,0,0.3c-0.1,0.2-0.2,0.3-0.4,0.3c-0.2,0-0.4-0.1-0.4-0.4c0-0.1,0-0.3,0-0.4c0.1-0.2,0-0.2-0.2-0.3
		c-0.7-0.3-1.5-0.3-2.1,0.1C9.9,5.2,9.6,5.6,9.4,6.1C9.4,6.4,9.1,6.5,8.9,6.4C8.7,6.4,8.6,6.1,8.6,5.9c0-0.1,0-0.2,0.1-0.2
		C8,5.5,7.3,6.1,7.3,6.7c0.1,0,0.2,0,0.2,0.1c0.3,0.2,0.6,0.4,0.9,0.6c0.2,0.2,0.2,0.4,0,0.6C8.2,8.1,8,8.1,7.8,7.9
		c0,0-0.1-0.1-0.1-0.1C7.4,7.5,7.1,7.4,6.7,7.6C6.4,7.7,6.2,7.9,6.1,8.3c0,0.4,0.1,0.7,0.4,0.9c0.3,0.2,0.3,0.5,0.1,0.7
		c-0.2,0.2-0.4,0.2-0.7,0c-0.1,0-0.1-0.1-0.2-0.2c-0.4,1-0.2,2,0.5,2.8c0.7,0.8,1.5,1,2.5,0.9c0-0.3,0-0.4-0.3-0.5
		c-0.6-0.2-1-0.7-1-1.3c0-0.3,0.1-0.5,0.4-0.5c0.3,0,0.4,0.1,0.5,0.4c0,0.2,0.1,0.4,0.2,0.5c0.2,0.2,0.4,0.2,0.5-0.1
		c0.1-0.1,0.1-0.2,0.2-0.3c0.2-0.3,0.6-0.2,0.7,0c0.1,0.1,0,0.4,0,0.5c-0.2,0.4-0.3,0.9-0.2,1.3c0.2,0.7,0.6,1.2,1.3,1.4
		c0.7,0.2,1.3,0,1.8-0.5c0.2-0.2,0.3-0.3,0.6-0.2c0.7,0.3,1.4,0.3,2.2,0.1c0.3-0.1,0.5,0.1,0.6,0.3c0.1,0.3-0.1,0.5-0.3,0.5
		c-0.2,0.1-0.4,0.1-0.6,0.1c0.2,0.3,0.4,0.5,0.8,0.7c0.7,0.3,1.4,0.5,1.9,1.1c0.1,0.2,0.4,0.2,0.6,0c0.1-0.1,0.2-0.3,0.2-0.5
		c0-0.3-0.2-0.5-0.3-0.8c-0.3,0.1-0.5,0.1-0.7,0.2c-0.3,0.1-0.5-0.1-0.6-0.3c-0.1-0.2,0.1-0.5,0.4-0.5c0.2-0.1,0.4-0.1,0.6-0.2
		c0.4-0.2,0.8-0.4,1.1-0.9c-0.1,0-0.1,0-0.2,0c-0.8,0.2-1.5,0-2.2-0.5c-0.1-0.1-0.2-0.1-0.3,0c-0.6,0.1-1.3-0.1-1.6-0.7
		c-0.2-0.3-0.2-0.5,0.1-0.7c0.2-0.1,0.4-0.1,0.6,0.2c0.2,0.3,0.6,0.4,0.9,0.3c0.3-0.2,0.4-0.4,0.3-0.8c-0.1-0.3,0-0.6,0.3-0.6
		c0.2-0.1,0.5,0.1,0.6,0.4c0.2,0.5,0.1,0.9-0.2,1.4c0.6,0.5,1.5,0.5,2.2-0.1C20.3,12.3,20.6,11.4,20.3,10.7z M2.9,13.9
		c0,0.1,0,0.2-0.1,0.2c-0.6,3.1-1.2,6.2-1.8,9.3c-0.1,0.7,0,0.8,0.7,0.8c2.8,0,5.6,0,8.3,0c0.1,0,0.2,0,0.3,0c0.1,0,0.1-0.1,0.1-0.1
		c0-0.5,0.1-1,0.1-1.5c-0.8-0.1-1.6-0.2-2.3-0.2C6.6,22.3,5,22.5,3.5,23c-0.8,0.3-1.4-0.2-1.2-1.1c0.2-1.5,0.5-3,0.7-4.5
		c0.2-1.2,0.4-2.4,0.6-3.6C3.3,13.9,3.1,13.9,2.9,13.9z M15.4,22.6c0,0.4,0.1,0.9,0.1,1.3c0,0.3,0.1,0.3,0.3,0.3c2.8,0,5.7,0,8.5,0
		c0.5,0,0.7-0.2,0.6-0.7c-0.5-2.6-1-5.1-1.5-7.7c-0.1-0.7-0.3-1.3-0.4-2c-0.2,0-0.5,0-0.7,0c0.5,2.7,0.9,5.4,1.3,8.1
		c0.1,0.8-0.4,1.3-1.2,1.1c-1.1-0.3-2.2-0.6-3.4-0.6C17.9,22.3,16.7,22.3,15.4,22.6z M11.4,22.8c0,0.2,0,0.3-0.1,0.5
		c0,0.3,0,0.7-0.1,1c-0.1,0.3,0.1,0.4,0.3,0.5c0.9,0.3,1.8,0.3,2.8,0c0.4-0.1,0.4-0.2,0.4-0.6c0-0.1,0-0.2,0-0.3
		c0-0.4-0.1-0.7-0.1-1.1c-0.4,0.2-0.8,0.3-1.2,0.4c-0.3,0.1-0.5,0.1-0.7,0C12.3,23,11.9,22.9,11.4,22.8z"/>
	<path class="st0" d="M9.8,2.2C9.7,2.4,9.6,2.6,9.5,2.6c-0.1,0-0.4,0-0.5-0.1C8.8,2,8.6,1.5,8.4,1c0-0.1,0.1-0.3,0.2-0.4
		c0.1-0.1,0.4,0,0.4,0C9.3,1.1,9.6,1.7,9.8,2.2z"/>
	<path class="st0" d="M17.1,0.5c0.4,0,0.6,0.3,0.5,0.6c-0.2,0.4-0.3,0.8-0.5,1.2c-0.1,0.2-0.3,0.3-0.6,0.2c-0.2-0.1-0.3-0.3-0.2-0.6
		c0.2-0.4,0.3-0.8,0.5-1.2C16.9,0.7,17,0.6,17.1,0.5z"/>
	<path class="st0" d="M4.6,7.3c0,0.4-0.3,0.6-0.6,0.5C3.6,7.6,3.1,7.5,2.7,7.3C2.5,7.2,2.4,7,2.5,6.7C2.6,6.5,2.8,6.4,3,6.5
		C3.5,6.6,3.9,6.8,4.3,7C4.4,7.1,4.5,7.2,4.6,7.3z"/>
	<path class="st0" d="M21.8,7.9c-0.1-0.1-0.3-0.2-0.4-0.4c0-0.1,0-0.4,0.2-0.5c0.4-0.2,0.9-0.4,1.4-0.6c0.2-0.1,0.4,0,0.5,0.2
		c0.1,0.2,0.1,0.4-0.1,0.5C22.9,7.4,22.4,7.6,21.8,7.9z"/>
	<path class="st0" d="M20.9,3.5c-0.1,0.1-0.1,0.2-0.1,0.3c-0.2,0.2-0.3,0.3-0.5,0.5c-0.2,0.2-0.4,0.2-0.6,0c-0.2-0.2-0.2-0.4,0-0.6
		c0.2-0.2,0.3-0.4,0.5-0.5c0.1-0.1,0.3-0.1,0.4-0.1C20.8,3.3,20.9,3.4,20.9,3.5z"/>
	<path class="st0" d="M6.4,4.1c0,0.1-0.1,0.2-0.2,0.3c-0.1,0.1-0.3,0-0.5,0C5.5,4.2,5.3,4,5.2,3.8c-0.1-0.1-0.1-0.3,0-0.5
		c0.1-0.1,0.2-0.2,0.4-0.2C5.8,3.1,6.4,3.8,6.4,4.1z"/>
	<path class="st0" d="M12.6,0.8c0-0.1,0-0.2,0-0.3c0-0.2,0.2-0.3,0.4-0.3c0.2,0,0.4,0.1,0.4,0.3c0,0.2,0,0.4,0,0.6
		c0,0.2-0.2,0.4-0.4,0.4c-0.2,0-0.4-0.2-0.4-0.4C12.6,1,12.6,0.9,12.6,0.8C12.6,0.8,12.6,0.8,12.6,0.8z"/>
	<path class="st0" d="M12.8,11.6c-0.4-0.3-0.8-0.5-1.2-0.8c-0.2-0.1-0.2-0.3-0.1-0.5c0.1-0.3,0.5-0.3,0.8-0.1c0.5,0.5,1,0.6,1.7,0.5
		c0.7-0.2,1.1-0.6,1.3-1.3c0.1-0.2,0.2-0.4,0.4-0.4c0.3,0,0.5,0.3,0.4,0.6c-0.3,1-0.9,1.6-1.8,1.9c-0.2,0.1-0.3,0.2-0.4,0.3
		c-0.4,0.7-1,1.1-1.8,1.1c-0.3,0-0.5-0.1-0.6-0.4c0-0.3,0.2-0.5,0.5-0.5C12.3,12,12.6,11.8,12.8,11.6z"/>
	<path class="st0" d="M9.6,9c0-1,0.9-1.8,1.9-1.9c0.3,0,0.5,0.1,0.5,0.4C12,7.8,11.9,8,11.6,8c-0.6,0.1-1,0.4-1.1,1.1
		c0,0.3-0.2,0.5-0.5,0.5C9.7,9.5,9.6,9.3,9.6,9z"/>
</g>
</svg>
